<svg width="467" height="467" viewBox="0 0 467 467" fill="none" xmlns="http://www.w3.org/2000/svg">
<circle cx="233.5" cy="233.5" r="233.5" fill="white"/>
<path d="M260.636 267.745C257.145 257.855 249.97 249.903 239.109 243.891C228.248 237.879 213.024 234.873 193.436 234.873C173.848 234.873 158.624 237.879 147.764 243.891C136.903 249.903 129.63 257.855 125.945 267.745H260.636ZM105 285.2C105 275.891 106.697 267.115 110.091 258.873C113.485 250.63 118.818 243.455 126.091 237.345C133.364 231.236 142.576 226.388 153.727 222.8C164.879 219.212 178.164 217.418 193.582 217.418C209 217.418 222.236 219.212 233.291 222.8C244.345 226.388 253.509 231.236 260.782 237.345C268.055 243.455 273.388 250.63 276.782 258.873C280.176 267.115 281.873 275.891 281.873 285.2H105ZM105 322.436V304.982H281.873V322.436H105ZM299.327 362V344.545H324.345L340.927 175.818H225.145L223.109 158.364H282.745V106H300.2V158.364H361L341.509 344.545C340.927 349.588 338.842 353.758 335.255 357.055C331.667 360.352 327.158 362 321.727 362H299.327ZM113.727 362C111.4 362 109.364 361.127 107.618 359.382C105.873 357.636 105 355.6 105 353.273V344.545H281.873V353.273C281.873 355.6 281 357.636 279.255 359.382C277.509 361.127 275.473 362 273.145 362H113.727Z" fill="#1976D2"/>
</svg>
